<svg xmlns="http://www.w3.org/2000/svg" viewBox="0 0 42.65625 67.2" width="42.65625" height="67.2"><g transform="translate(0, 53.760000000000005)"><path d="M542 492 522 454Q396 219 396 90Q396 52 425 16Q401 8 317 -23Q278 -37 243 -37Q173 -37 173 30Q173 169 346 454L377 505H326Q162 505 72 454Q119 623 325 623L449 620L476 660Q633 896 956 1295Q1065 1430 1119 1463.0Q1173 1496 1328 1523Q1299 1343 1299 1188Q1299 777 1394 355Q1446 123 1553 56Q1459 -37 1392 -37Q1234 -37 1148 505Q983 487 815 487ZM614 610 816 605Q1023 605 1133 619Q1087 970 1087 1201L1088 1276Q1055 1234 940 1094Q732 839 635 649Z" fill="#006eff" transform="scale(0.02734375, -0.02734375)"/></g></svg>